<svg width="16" height="16" viewBox="0 0 16 16" fill="none" xmlns="http://www.w3.org/2000/svg">
<path d="M14.3772 2.9583C13.7557 2.30537 12.9293 1.94581 12.0503 1.94581C11.1713 1.94581 10.3449 2.30537 9.72332 2.9583L4.53574 8.4075C3.7659 9.21617 3.7659 10.532 4.53579 11.3408C5.30567 12.1494 6.55835 12.1494 7.32819 11.3407L10.7441 7.75245C11.0011 7.48244 11.0011 7.04471 10.7441 6.77471C10.4871 6.50471 10.0703 6.50471 9.81331 6.77471L6.3974 10.3629C6.1408 10.6326 5.72322 10.6325 5.46657 10.363C5.20993 10.0934 5.20993 9.65473 5.46653 9.38519L10.6541 3.93608C11.0271 3.54435 11.5229 3.32859 12.0503 3.32859C12.5777 3.32859 13.0735 3.54435 13.4465 3.93608C14.2163 4.7448 14.2163 6.06062 13.4465 6.86933L7.7936 12.8073C6.51043 14.1551 4.42267 14.155 3.13963 12.8073C2.51805 12.1544 2.17572 11.2863 2.17572 10.363C2.17572 9.43962 2.51805 8.57149 3.13963 7.91856L8.79244 1.98051C9.04948 1.71051 9.04948 1.27278 8.79244 1.00278C8.53545 0.732821 8.1187 0.732775 7.86166 1.00278L2.20885 6.94082C1.33861 7.85491 0.859375 9.07024 0.859375 10.363C0.859375 11.6557 1.33861 12.871 2.20885 13.7851C3.10712 14.7287 4.28665 15.2004 5.46657 15.2003C6.64624 15.2002 7.82629 14.7284 8.72439 13.7851L14.3773 7.84702C15.6604 6.49917 15.6603 4.30615 14.3772 2.9583Z" fill="#B3B4B5"/>
</svg>
