<svg width="13" height="16" viewBox="0 0 13 16" fill="none" xmlns="http://www.w3.org/2000/svg">
<path fill-rule="evenodd" clip-rule="evenodd" d="M6.9505 9.24459H8.22711C8.52966 9.24459 8.78056 9.00699 8.78056 8.71179C8.78056 8.40939 8.52966 8.17179 8.22711 8.17179H6.9505V6.92619C6.9505 6.63099 6.70699 6.39339 6.40444 6.39339C6.10189 6.39339 5.851 6.63099 5.851 6.92619V8.17179H4.58176C4.27921 8.17179 4.02832 8.40939 4.02832 8.71179C4.02832 9.00699 4.27921 9.24459 4.58176 9.24459H5.851V10.4902C5.851 10.7854 6.10189 11.023 6.40444 11.023C6.70699 11.023 6.9505 10.7854 6.9505 10.4902V9.24459ZM12.0083 5.85848C12.1817 5.85654 12.3706 5.85444 12.5422 5.85444C12.7267 5.85444 12.8743 5.99844 12.8743 6.17844V11.9672C12.8743 13.7528 11.3911 15.2 9.55362 15.2H3.68711C1.7685 15.2 0.204102 13.6808 0.204102 11.8088V4.04724C0.204102 2.26165 1.69471 0.800049 3.53215 0.800049H7.47267C7.66453 0.800049 7.81212 0.951248 7.81212 1.13125V3.44964C7.81212 4.76724 8.92638 5.84724 10.2768 5.85444C10.5922 5.85444 10.8703 5.85671 11.1136 5.85871C11.303 5.86026 11.4713 5.86164 11.6198 5.86164C11.7249 5.86164 11.861 5.86012 12.0083 5.85848ZM12.2111 4.80779C11.6045 4.80995 10.8894 4.80779 10.3751 4.80275C9.55897 4.80275 8.88672 4.14683 8.88672 3.35051V1.4526C8.88672 1.14228 9.27265 0.9882 9.49329 1.21212C9.89267 1.61729 10.4415 2.17424 10.9878 2.72865C11.5327 3.28159 12.0751 3.83199 12.4642 4.22675C12.6797 4.44491 12.5217 4.80707 12.2111 4.80779Z" fill="#B3B4B5"/>
</svg>
