<svg width="96" height="96" viewBox="0 0 96 96" fill="none" xmlns="http://www.w3.org/2000/svg">
<rect width="96" height="96" rx="17.5493" fill="white"/>
<path d="M24.2852 47.9559C24.2852 42.471 28.7228 37.9687 34.2837 37.716L34.7772 37.7048H46.0964V51.5889C46.0964 52.5839 46.8998 53.3707 47.9159 53.3707C48.8257 53.3707 49.5965 52.7096 49.7186 51.833L49.7355 51.5889V37.7048H61.031C66.6551 37.7048 71.2758 42.0503 71.5352 47.517L71.5467 48.0022V59.2715C71.5467 64.7788 67.109 69.2817 61.5481 69.5345L61.0546 69.5457H34.8008C29.1538 69.5457 24.5548 65.1784 24.2966 59.7316L24.2852 59.2483V47.9559ZM39.7638 31.9274C39.0978 31.3072 39.0373 30.3298 39.5644 29.6445L39.7402 29.4484L46.6167 22.8073C46.9712 22.4661 47.4202 22.2842 47.9164 22.2842C48.2945 22.2842 48.6726 22.4006 48.9781 22.6219L49.1925 22.8073L56.069 29.4484C56.4235 29.7895 56.6125 30.2444 56.6125 30.6765C56.6125 31.1314 56.4235 31.5863 56.069 31.9274C55.4245 32.5477 54.409 32.6041 53.6971 32.0966L53.4933 31.9274L49.736 28.2885L49.7355 37.7048H46.0964L46.0968 28.2885L42.3395 31.9274C41.6306 32.6097 40.4727 32.6097 39.7638 31.9274Z" fill="#B3B4B5"/>
</svg>
