<svg width="30" height="30" viewBox="0 0 30 30" fill="none" xmlns="http://www.w3.org/2000/svg">
<circle cx="15" cy="15" r="15" fill="#C5EDDC"/>
<rect x="6.75" y="6.75" width="16.5" height="16.5" rx="4.5" fill="#5CC99C"/>
<path d="M17.7499 16.7164C17.7499 17.345 17.5636 17.8766 17.1909 18.3112C16.8249 18.738 16.3291 19.0134 15.7036 19.1376V19.8011C15.7036 20.0106 15.647 20.1775 15.5339 20.3016C15.4274 20.4336 15.2844 20.4995 15.1047 20.4995C14.9317 20.4995 14.7886 20.4336 14.6755 20.3016C14.5623 20.1775 14.5058 20.0106 14.5058 19.8011V19.1725C14.1398 19.1337 13.7838 19.0445 13.4377 18.9048C13.0983 18.7651 12.7989 18.5866 12.5394 18.3694C12.4329 18.2918 12.3564 18.2064 12.3098 18.1133C12.2698 18.0124 12.2499 17.8882 12.2499 17.7408C12.2499 17.5468 12.2998 17.3761 12.3996 17.2286C12.5061 17.0812 12.6259 17.0074 12.759 17.0074C12.8854 17.0074 13.0418 17.0695 13.2281 17.1937C13.5342 17.4032 13.8237 17.5584 14.0965 17.6593C14.376 17.7524 14.6655 17.799 14.9649 17.799C15.3642 17.799 15.6703 17.7136 15.8833 17.5429C16.0962 17.3644 16.2027 17.1161 16.2027 16.7979C16.2027 16.6039 16.1395 16.4448 16.013 16.3207C15.8933 16.1965 15.7435 16.0995 15.5639 16.0297C15.3842 15.9598 15.1247 15.8706 14.7853 15.7619C14.2928 15.6145 13.8869 15.4671 13.5675 15.3196C13.2481 15.1722 12.9719 14.9394 12.739 14.6212C12.5127 14.303 12.3996 13.8762 12.3996 13.3408C12.3996 12.7122 12.5893 12.1729 12.9686 11.7228C13.3545 11.2727 13.857 10.9856 14.4758 10.8614V10.1979C14.4758 9.9884 14.5324 9.82156 14.6455 9.6974C14.7586 9.56547 14.9017 9.49951 15.0747 9.49951C15.2544 9.49951 15.3975 9.56547 15.504 9.6974C15.6171 9.82156 15.6737 9.9884 15.6737 10.1979V10.8381C16.2726 10.9313 16.8349 11.1951 17.3606 11.6297C17.4604 11.7073 17.5303 11.7965 17.5702 11.8974C17.6168 11.9983 17.6401 12.1186 17.6401 12.2582C17.6401 12.4522 17.5868 12.623 17.4804 12.7704C17.3806 12.9179 17.2641 12.9916 17.131 12.9916C17.0578 12.9916 16.9879 12.9799 16.9214 12.9567C16.8615 12.9334 16.775 12.8829 16.6619 12.8053C16.389 12.6036 16.1428 12.4522 15.9232 12.3514C15.7103 12.2505 15.4474 12.2 15.1346 12.2C14.7753 12.2 14.4858 12.2932 14.2662 12.4794C14.0533 12.6656 13.9468 12.914 13.9468 13.2244C13.9468 13.4417 14.01 13.6201 14.1364 13.7598C14.2629 13.8918 14.4226 13.9965 14.6156 14.0741C14.8086 14.1517 15.0781 14.241 15.4241 14.3418C15.9099 14.4815 16.3058 14.6251 16.6119 14.7725C16.9247 14.9122 17.1909 15.1411 17.4105 15.4593C17.6368 15.7697 17.7499 16.1888 17.7499 16.7164Z" fill="#C5EDDC"/>
</svg>
