<svg width="18" height="21" viewBox="0 0 18 21" fill="none" xmlns="http://www.w3.org/2000/svg">
<path d="M17.8011 15.0136L16.2732 12.2921V7.55508C16.2929 5.67819 15.5584 3.86781 14.2256 2.5086C12.8929 1.1494 11.067 0.348516 9.13593 0.276133C8.16946 0.258608 7.20909 0.428381 6.31096 0.775529C5.41283 1.12268 4.59495 1.64024 3.90515 2.29795C3.21534 2.95566 2.66744 3.74033 2.29348 4.6061C1.91952 5.47186 1.72699 6.40134 1.72716 7.34021V12.2921L0.199221 15.013C0.0638642 15.2534 -0.00470954 15.5238 0.000251259 15.7978C0.00521206 16.0717 0.0835362 16.3397 0.227513 16.5753C0.37149 16.8109 0.576156 17.006 0.821362 17.1414C1.06657 17.2769 1.34386 17.3479 1.62594 17.3477H16.3744C16.6564 17.3479 16.9336 17.2768 17.1787 17.1414C17.4238 17.006 17.6284 16.8109 17.7724 16.5754C17.9164 16.3399 17.9947 16.072 17.9997 15.7982C18.0048 15.5243 17.9363 15.2539 17.8011 15.0136Z" fill="#212121"/>
<path d="M9.00031 20.2925C9.6378 20.2916 10.2639 20.128 10.8157 19.8181C11.3676 19.5081 11.8259 19.0626 12.1447 18.5264H5.85596C6.17471 19.0626 6.63299 19.5081 7.18486 19.8181C7.73674 20.128 8.36281 20.2916 9.00031 20.2925Z" fill="#212121"/>
</svg>
