<svg width="18" height="19" viewBox="0 0 18 19" fill="none" xmlns="http://www.w3.org/2000/svg">
<path d="M12.4897 0.790039C15.4423 0.790039 17.4194 2.86294 17.4194 5.94617V13.0628C17.4194 16.1365 15.4423 18.2094 12.4897 18.2094H4.93839C1.98581 18.2094 0 16.1365 0 13.0628V5.94617C0 2.86294 1.98581 0.790039 4.93839 0.790039H12.4897ZM12.3503 6.88681C12.0542 6.59068 11.5665 6.59068 11.2703 6.88681L7.67323 10.4839L6.14903 8.95972C5.8529 8.66359 5.36516 8.66359 5.06903 8.95972C4.7729 9.25585 4.7729 9.73488 5.06903 10.0397L7.14193 12.1039C7.29 12.252 7.48161 12.3217 7.67323 12.3217C7.87355 12.3217 8.06516 12.252 8.21323 12.1039L12.3503 7.96681C12.6465 7.67068 12.6465 7.19165 12.3503 6.88681Z" fill="#3D9AFF"/>
</svg>
