<svg width="656" height="349" viewBox="0 0 656 349" fill="none" xmlns="http://www.w3.org/2000/svg">
<path d="M228.419 308.667C226.764 308.589 225.486 307.184 225.564 305.529C225.642 303.874 227.047 302.596 228.703 302.673C230.358 302.751 231.636 304.156 231.557 305.811C231.479 307.466 230.074 308.744 228.419 308.667Z" fill="#3897FF"/>
<path d="M313.777 288.727C311.019 288.598 308.888 286.257 309.019 283.498C309.149 280.74 311.491 278.609 314.25 278.739C317.008 278.868 319.138 281.209 319.008 283.968C318.877 286.726 316.535 288.857 313.777 288.727Z" fill="#8E4DD5"/>
<path d="M394.159 283.7C391.952 283.596 390.248 281.723 390.352 279.516C390.457 277.31 392.33 275.605 394.537 275.709C396.744 275.812 398.448 277.685 398.344 279.892C398.239 282.099 396.366 283.803 394.159 283.7Z" fill="#00A98F"/>
<path d="M632.571 172.343C631.005 171.803 630.176 170.096 630.721 168.531C631.265 166.966 632.977 166.136 634.543 166.676C636.109 167.216 636.937 168.923 636.393 170.488C635.848 172.052 634.137 172.883 632.571 172.343Z" fill="#00A98F"/>
<path d="M653.517 211.543C652.679 211.254 652.235 210.344 652.526 209.51C652.816 208.676 653.73 208.234 654.568 208.523C655.406 208.812 655.85 209.722 655.56 210.556C655.269 211.39 654.355 211.832 653.517 211.543Z" fill="#00A98F"/>
<path d="M620.728 209.556C618.169 208.674 616.831 205.844 617.738 203.236C618.646 200.628 621.456 199.229 624.014 200.111C626.573 200.994 627.911 203.823 627.003 206.431C626.096 209.04 623.286 210.438 620.728 209.556Z" fill="#8E4DD5"/>
<path d="M626.8 57.4876C624.242 56.6052 622.886 53.8253 623.772 51.2785C624.658 48.7318 627.451 47.3826 630.009 48.265C632.568 49.1474 633.923 51.9273 633.037 54.474C632.151 57.0208 629.358 58.37 626.8 57.4876Z" fill="#3897FF"/>
<path d="M629.167 97.7645L635.916 95.3956L642.315 98.5585L639.951 91.8418L643.142 85.4608L636.393 87.8298L629.994 84.6669L632.357 91.3832L629.167 97.7645Z" fill="#FFCC00"/>
<path d="M586.739 225.668L590.505 226.193L592.751 229.253L593.282 225.494L596.353 223.25L592.586 222.725L590.34 219.665L589.809 223.424L586.739 225.668Z" fill="#FFCC00"/>
<path d="M0.740014 338.423L4.5067 338.947L6.7523 342.008L7.28329 338.249L10.3538 336.005L6.58707 335.48L4.34147 332.42L3.81041 336.178L0.740014 338.423Z" fill="#FFCC00"/>
<path d="M629 246.287L631.691 246.662L633.295 248.848L633.674 246.164L635.867 244.561L633.177 244.186L631.573 242L631.193 244.684L629 246.287Z" fill="#8E4DD5"/>
<path d="M623.167 11.3107L626.089 11.7217L627.835 14.0936L628.242 11.1844L630.62 9.45093L627.698 9.03989L625.953 6.66803L625.546 9.57694L623.167 11.3107Z" fill="#00A98F"/>
<path d="M469.599 258.919L476.121 261.252L472.832 248.429L466.022 246.449L469.599 258.919Z" fill="#00A98F"/>
<path d="M127.448 317.181L128.51 321.628L134.39 315.399L133.029 310.912L127.448 317.181Z" fill="#00A98F"/>
<path d="M558.994 257.269L558.828 251.541L549.91 257.815L550.436 263.664L558.994 257.269Z" fill="#3897FF"/>
</svg>
