<svg width="75" height="74" viewBox="0 0 75 74" fill="none" xmlns="http://www.w3.org/2000/svg">
<path d="M23.8177 53.4501C21.5732 52.7571 19.1918 54.0148 18.4988 56.2593C17.8058 58.5038 19.0635 60.8851 21.308 61.5782C23.5525 62.2712 25.9339 61.0135 26.6269 58.769C27.3199 56.5245 26.0622 54.1431 23.8177 53.4501Z" fill="#3897FF"/>
<path d="M65.3356 20.4858L67.4345 27.5689L73.9757 31.0025L66.8925 33.1014L63.459 39.6426L61.3597 32.5597L54.8189 29.1259L61.902 27.0269L65.3356 20.4858Z" fill="#FFCC00"/>
<path d="M25.0154 20L30.6699 24.754L38.0204 24.0154L33.2659 29.67L34.0049 37.0204L28.3504 32.2663L20.9999 33.0049L25.7539 27.3506L25.0154 20Z" fill="#8E4DD5"/>
</svg>
