<svg width="69" height="78" viewBox="0 0 69 78" fill="none" xmlns="http://www.w3.org/2000/svg">
<path d="M46.5532 53.854C48.5285 54.8071 50.9025 53.9783 51.8555 52.003C52.8086 50.0276 51.9798 47.6537 50.0044 46.7006C48.0291 45.7476 45.6551 46.5763 44.7021 48.5517C43.749 50.5271 44.5778 52.901 46.5532 53.854Z" fill="#8E4DD5"/>
<path d="M53.8609 27.0849L49.3044 21.9065L42.4154 21.5628L47.5938 17.0063L47.9375 10.1173L52.4942 15.2953L59.383 15.6394L54.2047 20.1959L53.8609 27.0849Z" fill="#FFCC00"/>
<path d="M11.8678 62.7355L7.31115 57.5574L0.422279 57.2134L5.60068 52.6568L5.94434 45.7679L10.501 50.946L17.3898 51.29L12.2119 55.8465L11.8678 62.7355Z" fill="#00A98F"/>
</svg>
