<svg width="110" height="110" viewBox="0 0 110 110" fill="none" xmlns="http://www.w3.org/2000/svg">
<path d="M55 110C85.3757 110 110 85.3757 110 55C110 24.6243 85.3757 0 55 0C24.6243 0 0 24.6243 0 55C0 85.3757 24.6243 110 55 110Z" fill="#B5D5FF"/>
<path d="M110 55C110 50.2022 109.384 45.5484 108.23 41.1117L97.0245 29.9063L94.6356 32.7996L78.9312 17.0952L80.5369 27.7888L80.2037 28.1012L64.1807 12.0781L57.1579 19.1009L72.6343 34.5774L72.8879 34.962L69.0512 38.56L45.3672 14.8758L49.414 27.789L45.6306 43.3519L30.5052 28.2264L27.3047 31.5335L41.4719 45.7007L32.5548 61.7627L22.8877 88.1582L43.5277 108.798C47.2282 109.583 51.0653 110 55 110C85.3756 110 110 85.3757 110 55Z" fill="#B2D7F3"/>
<path d="M61.6537 64.2811L58.251 60.8784C67.3818 51.7476 82.2391 51.7476 91.3702 60.8784L87.9675 64.2811C80.7129 57.0265 68.9083 57.0265 61.6537 64.2811Z" fill="#613393"/>
<path d="M45.3675 47.9952L41.9648 44.5925C49.2197 37.3377 49.2197 25.5335 41.9648 18.2787L45.3675 14.876C54.4984 24.007 54.4984 38.8644 45.3675 47.9952Z" fill="#8E4DD5"/>
<path d="M36.4998 37.7231L32.8174 46.8501L32.6008 53.3055L29.1349 55.9771L25.4527 65.1041L24.762 72.7343L21.7703 74.2309L18.0879 83.3579L20.4881 85.7581L40.0561 70.9777L52.5112 53.7348L36.4998 37.7231Z" fill="#FFDD55"/>
<path d="M20.4893 85.7582L22.8893 88.1582L32.0158 84.476L34.699 81.0056L41.1433 80.7936L50.2703 77.1112L54.0425 74.5453L59.3972 73.4287L68.524 69.7465L52.5124 53.7349L20.4893 85.7582Z" fill="#FFCC00"/>
<path d="M26.893 79.3533L21.7705 74.2308L25.4529 65.104L33.2975 72.9486L32.5909 79.3022L26.893 79.3533Z" fill="#FF5E92"/>
<path d="M39.7019 66.544L29.1348 55.9771L32.8172 46.8501L46.1066 60.1395L45.2981 65.7355L39.7019 66.544Z" fill="#FF5E92"/>
<path d="M26.8926 79.3536L32.0151 84.4761L41.1421 80.7937L33.2973 72.9488L26.8926 79.3536ZM46.1065 60.1396L39.7018 66.5444L50.2689 77.1114L59.3959 73.429L46.1065 60.1396Z" fill="#FF3C7D"/>
<path d="M69.0987 26.9292L63.6537 32.3742L71.2214 35.0254L75.5204 34.129L76.6664 29.5802L69.0987 26.9292ZM53.8203 42.2076L61.388 44.8588L65.5819 44.0677L66.833 39.4138L59.2653 36.7626L53.8203 42.2076Z" fill="#00CCB2"/>
<path d="M66.8327 39.4135L61.3877 44.8585L68.9554 47.5096L73.5874 41.7798L66.8327 39.4135ZM82.3807 31.582L76.6663 29.5801L71.2213 35.0251L78.789 37.6763L82.3807 31.582Z" fill="#00A98F"/>
<path d="M78.9323 17.0957L73.4873 22.5407L76.1385 30.1084L79.8738 29.776L81.5837 24.6631L78.9323 17.0957ZM63.6537 32.3743L66.3049 39.942L69.7473 39.9024L71.7501 34.4968L69.0989 26.9291L63.6537 32.3743ZM53.8203 42.2077L56.4715 49.7754L59.9509 49.6989L61.9167 44.3302L59.2655 36.7625L53.8203 42.2077Z" fill="#FF3C7D"/>
<path d="M66.3051 39.9422L68.9563 47.5098L74.4013 42.0648L71.7501 34.4972L66.3051 39.9422ZM56.4717 49.7756L59.1229 57.3432L64.5679 51.8982L61.9167 44.3306L56.4717 49.7756ZM81.5837 24.6636L76.1387 30.1086L78.7899 37.6762L84.2349 32.2312L81.5837 24.6636Z" fill="#D21372"/>
<path d="M87.5712 49.1458C88.8392 49.1458 89.867 48.118 89.867 46.85C89.867 45.5821 88.8392 44.5542 87.5712 44.5542C86.3033 44.5542 85.2754 45.5821 85.2754 46.85C85.2754 48.118 86.3033 49.1458 87.5712 49.1458Z" fill="#8E4DD5"/>
<path d="M28.8241 32.1029C30.0921 32.1029 31.12 31.075 31.12 29.8071C31.12 28.5391 30.0921 27.5112 28.8241 27.5112C27.5562 27.5112 26.5283 28.5391 26.5283 29.8071C26.5283 31.075 27.5562 32.1029 28.8241 32.1029Z" fill="#FFDD55"/>
<path d="M97.0254 36.937L93.5093 35.4518L89.9932 36.937L91.4784 33.4209L89.9932 29.9048L93.5093 31.3898L97.0254 29.9048L95.5402 33.4209L97.0254 36.937Z" fill="#FFCC00"/>
<path d="M64.1615 19.1007L60.6404 17.6136L57.1191 19.1007L58.6065 15.5797L57.1191 12.0586L60.6404 13.5457L64.1615 12.0586L62.6744 15.5797L64.1615 19.1007Z" fill="#FF3C7D"/>
<path d="M85.0987 77.8616L81.5825 76.3766L78.0664 77.8616L79.5516 74.3455L78.0664 70.8296L81.5825 72.3146L85.0987 70.8296L83.6137 74.3455L85.0987 77.8616Z" fill="#00A98F"/>
</svg>
