<svg width="73" height="67" viewBox="0 0 73 67" fill="none" xmlns="http://www.w3.org/2000/svg">
<path d="M25.2511 53.5839C23.2253 52.3947 20.619 53.0728 19.4297 55.0986C18.2405 57.1244 18.9186 59.7307 20.9444 60.9199C22.9702 62.1092 25.5765 61.431 26.7658 59.4052C27.955 57.3795 27.2769 54.7732 25.2511 53.5839Z" fill="#3897FF"/>
<path d="M29.2176 15.0005L29.6364 22.3762L35.2159 27.2183L27.8402 27.637L22.9982 33.2166L22.579 25.841L16.9999 20.9988L24.3756 20.5801L29.2176 15.0005Z" fill="#FFCC00"/>
<path d="M56.9334 23.9557L61.3471 29.8797L68.6711 30.8464L62.7466 35.26L61.7804 42.584L57.3667 36.6599L50.0428 35.6933L55.9666 31.2798L56.9334 23.9557Z" fill="#00A98F"/>
</svg>
