<svg width="65" height="64" viewBox="0 0 65 64" fill="none" xmlns="http://www.w3.org/2000/svg">
<path d="M13.9292 13.7247C15.9862 12.9638 17.037 10.6794 16.2761 8.62237C15.5153 6.56532 13.2309 5.51455 11.1738 6.27542C9.11678 7.03628 8.06602 9.32064 8.82688 11.3777C9.58774 13.4347 11.8721 14.4855 13.9292 13.7247Z" fill="#3897FF"/>
<path d="M61.8244 22.1612L56.2467 18.1033L49.449 19.2728L53.5069 13.6952L52.3374 6.89746L57.9151 10.9549L64.7128 9.78584L60.6549 15.3635L61.8244 22.1612Z" fill="#FFCC00"/>
<path d="M20.7765 51.8162L13.8862 51.5035L8.85774 56.2247L9.17066 49.334L4.44922 44.3059L11.3396 44.6186L16.368 39.8974L16.0553 46.7875L20.7765 51.8162Z" fill="#00A98F"/>
</svg>
