<svg width="161" height="154" viewBox="0 0 161 154" fill="none" xmlns="http://www.w3.org/2000/svg">
<path d="M108.683 109.643C110.451 108.069 110.605 105.354 109.026 103.578C107.447 101.802 104.733 101.638 102.964 103.211C101.196 104.785 101.042 107.5 102.621 109.276C104.2 111.052 106.914 111.216 108.683 109.643Z" fill="#8E4DD5"/>
<path d="M80.9161 109.462C81.7518 108.718 81.8245 107.436 81.0784 106.596C80.3324 105.757 79.0501 105.68 78.2144 106.423C77.3787 107.166 77.3061 108.449 78.0522 109.289C78.7982 110.128 80.0805 110.205 80.9161 109.462Z" fill="#8E4DD5"/>
<path d="M131.969 51.2597L122.86 54.3386L118.739 63.029L115.628 53.9009L106.928 49.7441L116.037 46.6648L120.158 37.9748L123.269 47.1029L131.969 51.2597Z" fill="#00A98F"/>
<path d="M121.071 77.9103L116.77 79.5159L114.674 83.6012L113.415 79.464L109.455 77.7306L113.755 76.1249L115.852 72.0397L117.11 76.1769L121.071 77.9103Z" fill="#00A98F"/>
<path d="M86.0174 90.4439C86.7386 89.2842 86.3816 87.7553 85.2199 87.0291C84.0582 86.3028 82.5318 86.6543 81.8106 87.8141C81.0893 88.9739 81.4464 90.5028 82.608 91.229C83.7697 91.9552 85.2961 91.6037 86.0174 90.4439Z" fill="white"/>
<path d="M49.3613 123.914C49.7714 123.254 49.5684 122.385 48.9078 121.972C48.2473 121.559 47.3794 121.759 46.9693 122.419C46.5592 123.078 46.7623 123.947 47.4228 124.36C48.0833 124.773 48.9512 124.573 49.3613 123.914Z" fill="#00A98F"/>
<path d="M115.467 20.9006L105.335 21.1859L98.5039 28.6544L98.1801 18.514L90.691 11.6487L100.823 11.3629L107.654 3.89494L107.978 14.0354L115.467 20.9006Z" fill="#3897FF"/>
<path d="M93.5834 87.2653L87.6733 89.3523L85.0715 95.0454L82.9525 89.1331L77.2383 86.5074L83.1484 84.4204L85.7502 78.7272L87.8693 84.6391L93.5834 87.2653Z" fill="#FFCC00"/>
<path d="M63.1291 118.272L60.9192 120.643L61.0799 123.891L58.7062 121.667L55.467 121.815L57.6769 119.444L57.5162 116.196L59.8898 118.421L63.1291 118.272Z" fill="#FFCC00"/>
<path d="M45.181 130.113L43.4196 132.004L43.5477 134.593L41.6557 132.819L39.0739 132.938L40.8353 131.048L40.7072 128.459L42.5991 130.232L45.181 130.113Z" fill="#8E4DD5"/>
<path d="M102.18 67.2938L99.1106 72.5221L94.1538 61.7121L97.6137 56.5729L102.18 67.2938Z" fill="#00A98F"/>
<path d="M77.3507 125.626L74.27 121.761L83.891 121.17L86.7918 125.305L77.3507 125.626Z" fill="#3897FF"/>
<path d="M51.4899 135.146L49.5317 132.69L55.647 132.314L57.4907 134.942L51.4899 135.146Z" fill="#FFCC00"/>
</svg>
