<svg width="69" height="66" viewBox="0 0 69 66" fill="none" xmlns="http://www.w3.org/2000/svg">
<path d="M26.4004 19.7654C24.2633 18.7904 21.7403 19.7325 20.7653 21.8696C19.7903 24.0068 20.7324 26.5297 22.8696 27.5047C25.0068 28.4797 27.5297 27.5376 28.5047 25.4005C29.4797 23.2633 28.5376 20.7404 26.4004 19.7654Z" fill="#3897FF"/>
<path d="M23.9592 46.1242L25.1329 53.4179L31.18 57.6616L23.8863 58.8353L19.6426 64.8824L18.4685 57.5889L12.4218 53.345L19.7155 52.1713L23.9592 46.1242Z" fill="#FFCC00"/>
<path d="M49.3992 14.8071L54.3977 20.2467L61.7821 20.4564L56.3421 25.4549L56.1328 32.8394L51.1343 27.3997L43.7498 27.19L49.1893 22.1917L49.3992 14.8071Z" fill="#00A98F"/>
</svg>
