<svg width="73" height="70" viewBox="0 0 73 70" fill="none" xmlns="http://www.w3.org/2000/svg">
<path d="M27.0952 21.3429C24.9581 20.3678 22.4352 21.31 21.4601 23.4471C20.4851 25.5843 21.4272 28.1072 23.5644 29.0822C25.7016 30.0572 28.2245 29.1151 29.1995 26.978C30.1745 24.8408 29.2324 22.3179 27.0952 21.3429Z" fill="#3897FF"/>
<path d="M27.9592 50.1185L29.1329 57.4122L35.18 61.6559L27.8863 62.8296L23.6426 68.8767L22.4685 61.5832L16.4218 57.3393L23.7155 56.1656L27.9592 50.1185Z" fill="#FFCC00"/>
<path d="M53.3991 18.8014L58.3975 24.241L65.782 24.4507L60.342 29.4492L60.1327 36.8336L55.1342 31.394L47.7497 31.1843L53.1892 26.186L53.3991 18.8014Z" fill="#00A98F"/>
</svg>
